<?xml version="1.0"?>
<svg data-v-469cfe6c="" width="24" height="24" xmlns="http://www.w3.org/2000/svg" class="a8u" style="color: rgb(255, 255, 255); background: radial-gradient(circle at 33% 100%, rgb(254, 211, 115) 4%, rgb(241, 82, 69) 30%, rgb(217, 46, 127) 62%, rgb(155, 54, 183) 85%, rgb(81, 94, 207));">
	<path data-v-469cfe6c="" 
		d="M11.738 1H12.878c2.2.003 2.61.018 3.657.066 1.171.054 1.97.24 2.67.511a5.392 5.392 0 011.949 1.27 5.392 5.392 0 011.269 1.948l.02.054c.257.677.434 1.454.489 2.57l.016.37c.04.926.052 1.49.052 4.035v.835c-.002 2.392-.017 2.795-.066 3.876-.054 1.171-.24 
		1.97-.511 2.67a5.392 5.392 0 01-1.27 1.949 5.392 5.392 0 01-1.948 1.269l-.054.02c-.677.257-1.454.434-2.57.489l-.37.016c-.927.04-1.49.052-4.035.052h-.835c-2.392-.002-2.795-.017-3.876-.066-1.171-.054-1.97-.24-2.67-.511a5.392 5.392 0 01-1.949-1.27 5.392 5.392 
		0 01-1.269-1.948l-.02-.054c-.257-.677-.434-1.454-.489-2.57l-.015-.337c-.041-.936-.052-1.48-.053-3.982v-.919c.002-2.394.017-2.797.066-3.878.053-1.156.235-1.95.501-2.643l.01-.027a5.392 5.392 0 011.27-1.949 5.383 5.383 0 011.91-1.254l.038-.015c.69-.268 
		1.478-.453 2.625-.509l.336-.015c.935-.041 1.48-.052 3.982-.053zm.834 1.982h-1.144c-2.112.001-2.666.012-3.492.047l-.381.017c-1.072.049-1.655.228-2.043.379-.513.2-.88.438-1.264.823a3.396 3.396 0 00-.81 1.233l-.023.056c-.147.384-.317.956-.367 
		1.984l-.019.415c-.036.846-.046 1.407-.047 3.647v.99c.001 2.11.012 2.664.047 3.49l.017.382c.049 1.072.228 1.655.379 2.042.2.514.438.88.823 1.265.377.377.736.614 1.233.81l.056.023c.388.148.968.321 2.018.369l.41.018c.83.035 1.404.045 3.618.046h.99c2.416-.002 
		2.792-.015 3.872-.064l.068-.003c1.03-.054 1.595-.228 1.974-.376.514-.2.88-.438 1.265-.823.377-.377.614-.736.81-1.233l.023-.057c.148-.387.321-.967.369-2.017l.018-.41c.035-.83.045-1.404.046-3.618v-.99c-.002-2.416-.015-2.792-.064-3.872l-.003-.068c-.054-1.03-.228-1.595-.376-1.975-.2-.513-.438-.88-.823-1.264a3.396 
		3.396 0 00-1.233-.81l-.057-.023c-.383-.147-.955-.317-1.983-.367l-.415-.019c-.827-.035-1.38-.046-3.492-.047zM12 6.352a5.649 5.649 0 110 11.297A5.649 5.649 0 0112 6.35zm0 1.981a3.667 3.667 0 100 7.334 3.667 3.667 0 000-7.334zm5.872-3.525a1.32 1.32 0 110 2.64 1.32 
		1.32 0 010-2.64z" fill="currentColor" fill-rule="nonzero">
	</path>
</svg>