<?xml version="1.0"?>
<svg data-v-469cfe6c="" width="24" height="24" xmlns="http://www.w3.org/2000/svg" class="a8u" style="color: rgb(0, 172, 237);">
	<path data-v-469cfe6c="" d="M12 1c6.075 0 11 4.925 11 11s-4.925 11-11 11S1 18.075 1 12 5.925 1 12 1zm2.877 6.298a2.652 
		2.652 0 00-2.58 3.255A7.524 7.524 0 016.83 7.781a2.66 2.66 0 00-.357 1.332 2.64 2.64 0 001.182 2.205 2.605 2.605 0 01-1.199-.33v.033c0 1.287.913 2.354 2.128 2.601a2.644 2.644 0 01-1.198.044A2.648 2.648 0 009.86 15.51a5.331 5.331 0 01-3.926 1.095 
		7.389 7.389 0 004.053 1.198c4.879 0 7.546-4.042 7.546-7.545 0-.116 0-.232-.006-.341a5.433 5.433 0 001.326-1.376 5.383 5.383 0 01-1.524.419 2.65 2.65 0 001.166-1.469 5.37 5.37 0 01-1.683.643 2.64 2.64 0 00-1.936-.835z" 
		fill="currentColor" fill-rule="nonzero">
	</path>
</svg>