<?xml version="1.0"?>
<svg data-v-469cfe6c="" width="24" height="24" xmlns="http://www.w3.org/2000/svg" class="a8u" style="color: rgb(70, 128, 194);">
  <path data-v-469cfe6c="" 
    d="M15.377 1C21.54 1 23 2.46 23 8.623v6.754C23 21.54 21.54 23 15.377 23H8.623C2.46 23 1 21.54 1 15.377V8.623C1 2.46 2.46 1 8.623 1h6.754zM6.853 7.971H5.24c-.466 0-.544.217-.544.45 0 .42.544 2.531 2.53 5.326 1.32 1.91 3.2 
    2.934 4.891 2.934 1.025 0 1.15-.233 1.15-.621v-1.444c0-.466.093-.543.419-.543.232 0 .652.124 1.599 1.04 1.087 1.087 1.273 1.584 1.878 1.584h1.6c.465 0 .683-.233.558-.684-.14-.45-.667-1.102-1.35-1.878-.373-.435-.932-.916-1.103-1.15-.233-.31-.17-.434 
    0-.713-.015 0 1.941-2.764 2.143-3.695.109-.342 0-.59-.481-.59h-1.6c-.403 0-.59.217-.698.45 0 0-.823 1.987-1.972 3.276-.373.372-.543.497-.745.497-.109 0-.249-.125-.249-.466V8.56c0-.404-.124-.59-.465-.59h-2.516c-.248 0-.403.186-.403.373 0 .388.574.481.636 
    1.568v2.36c0 .512-.093.605-.295.605-.543 0-1.863-2.003-2.655-4.285-.155-.45-.31-.62-.714-.62z" fill="currentColor" fill-rule="nonzero">
  </path>
</svg>
